General

Format                                   : MPEG-4
Format profile                           : Base Media / Version 2
Codec ID                                 : mp42
File size                                : 89.5 MiB
Duration                                 : 3mn 9s
Overall bit rate mode                    : Variable
Overall bit rate                         : 3 968 Kbps
Encoded date                             : UTC 2012-06-03 12:28:39
Tagged date                              : UTC 2012-06-03 12:28:39

Video

ID                                       : 1
Format                                   : AVC
Format/Info                              : Advanced Video Codec
Format profile                           : High@L4.0
Format settings, CABAC                   : Yes
Format settings, ReFrames                : 1 frame
Codec ID                                 : avc1
Codec ID/Info                            : Advanced Video Coding
Duration                                 : 3mn 9s
Bit rate                                 : 3 814 Kbps
Maximum bit rate                         : 8 808 Kbps
Width                                    : 1 920 pixels
Height                                   : 1 080 pixels
Display aspect ratio                     : 16:9
Frame rate mode                          : Constant
Frame rate                               : 24.000 fps
Color space                              : YUV
Chroma subsampling                       : 4:2:0
Bit depth                                : 8 bits
Scan type                                : Progressive
Bits/(Pixel*Frame)                       : 0.077
Stream size                              : 86.0 MiB (96%)
Tagged date                              : UTC 2012-06-03 12:28:39

Audio
ID                                       : 2
Format                                   : AAC
Format/Info                              : Advanced Audio Codec
Format profile                           : LC
Codec ID                                 : 40
Duration                                 : 3mn 9s
Bit rate mode                            : Variable
Bit rate                                 : 152 Kbps
Maximum bit rate                         : 215 Kbps
Channel(s)                               : 2 channels
Channel positions                        : Front: L R
Sampling rate                            : 44.1 KHz
Compression mode                         : Lossy
Stream size                              : 3.42 MiB (4%)
Encoded date                             : UTC 2012-06-03 12:28:39
Tagged date                              : UTC 2012-06-03 12:28:39